<?xml version="1.0" encoding="iso-8859-1"?>
<!-- Generator: Adobe Illustrator 19.0.0, SVG Export Plug-In . SVG Version: 6.00 Build 0)  -->
<svg version="1.1" id="Capa_1" xmlns="http://www.w3.org/2000/svg" xmlns:xlink="http://www.w3.org/1999/xlink" x="0px" y="0px"
	 viewBox="0 0 511.755 511.755" style="enable-background:new 0 0 511.755 511.755;" xml:space="preserve">
<g>
	<g>
		<path fill="#f00" d="M436.891,74.867c-99.819-99.819-262.208-99.819-362.027,0c-99.819,99.797-99.819,262.229,0,362.027
			c49.899,49.92,115.456,74.859,181.013,74.859s131.115-24.939,181.013-74.859C536.709,337.096,536.709,174.664,436.891,74.867z
			 M255.877,426.547c-11.776,0-21.333-9.557-21.333-21.333s9.557-21.333,21.333-21.333c11.776,0,21.333,9.557,21.333,21.333
			S267.653,426.547,255.877,426.547z M277.211,319.88c0,11.776-9.536,21.333-21.333,21.333c-11.797,0-21.333-9.557-21.333-21.333
			V106.547c0-11.776,9.536-21.333,21.333-21.333c11.797,0,21.333,9.557,21.333,21.333V319.88z"/>
	</g>
</g>
<g>
</g>
<g>
</g>
<g>
</g>
<g>
</g>
<g>
</g>
<g>
</g>
<g>
</g>
<g>
</g>
<g>
</g>
<g>
</g>
<g>
</g>
<g>
</g>
<g>
</g>
<g>
</g>
<g>
</g>
</svg>
