{
  "accessors": [
    {
      "bufferView": 1,
      "componentType": 5126,
      "count": 41820,
      "max": [
        187.0501708984375,
        220.71867370605469,
        100.55631256103516
      ],
      "min": [
        -187.03421020507812,
        -34.577033996582031,
        -88.962486267089844
      ],
      "type": "VEC3"
    },
    {
      "bufferView": 1,
      "byteOffset": 501840,
      "componentType": 5126,
      "count": 41820,
      "max": [
        1,
        0.9999346137046814,
        0.99998575448989868
      ],
      "min": [
        -1,
        -1,
        -0.99998611211776733
      ],
      "type": "VEC3"
    },
    {
      "bufferView": 2,
      "componentType": 5126,
      "count": 41820,
      "max": [
        0.54901963472366333,
        0.58823531866073608,
        0.91764706373214722,
        1
      ],
      "min": [
        0.50196081399917603,
        0.54901963472366333,
        0.91372549533843994,
        1
      ],
      "type": "VEC4"
    },
    {
      "bufferView": 0,
      "componentType": 5125,
      "count": 250908,
      "max": [
        41819
      ],
      "min": [
        0
      ],
      "type": "SCALAR"
    },
    {
      "bufferView": 1,
      "byteOffset": 1003680,
      "componentType": 5126,
      "count": 14312,
      "max": [
        272.84921264648438,
        257.14901733398438,
        348.68899536132812
      ],
      "min": [
        -272.85073852539062,
        -30.932353973388672,
        2.4205329418182373
      ],
      "type": "VEC3"
    },
    {
      "bufferView": 1,
      "byteOffset": 1175424,
      "componentType": 5126,
      "count": 14312,
      "max": [
        0.99999725818634033,
        0.99999886751174927,
        0.99991613626480103
      ],
      "min": [
        -0.99999988079071045,
        -0.99996978044509888,
        -0.99967414140701294
      ],
      "type": "VEC3"
    },
    {
      "bufferView": 2,
      "byteOffset": 669120,
      "componentType": 5126,
      "count": 14312,
      "max": [
        1,
        1,
        1,
        1
      ],
      "min": [
        0.73725491762161255,
        0.73725491762161255,
        0.73725491762161255,
        1
      ],
      "type": "VEC4"
    },
    {
      "bufferView": 0,
      "byteOffset": 1003632,
      "componentType": 5125,
      "count": 85848,
      "max": [
        14311
      ],
      "min": [
        0
      ],
      "type": "SCALAR"
    }
  ],
  "asset": {
    "extras": {
      "author": "Evan Pachon (https://sketchfab.com/Evanpachon)",
      "license": "CC-BY-4.0 (http://creativecommons.org/licenses/by/4.0/)",
      "source": "https://sketchfab.com/3d-models/surgical-mask-12ec509e8f00469e9e43a4e550b981bd",
      "title": "Surgical Mask"
    },
    "generator": "Sketchfab-7.97.0",
    "version": "2.0"
  },
  "bufferViews": [
    {
      "buffer": 0,
      "byteLength": 1347024,
      "byteOffset": 0,
      "name": "floatBufferViews",
      "target": 34963
    },
    {
      "buffer": 0,
      "byteLength": 1347168,
      "byteOffset": 1347024,
      "byteStride": 12,
      "name": "floatBufferViews",
      "target": 34962
    },
    {
      "buffer": 0,
      "byteLength": 898112,
      "byteOffset": 2694192,
      "byteStride": 16,
      "name": "floatBufferViews",
      "target": 34962
    }
  ],
  "buffers": [
    {
      "byteLength": 3592304,
      "uri": "scene.bin"
    }
  ],
  "materials": [
    {
      "doubleSided": true,
      "name": "material_0",
      "pbrMetallicRoughness": {
        "baseColorFactor": [
          1,
          1,
          1,
          1
        ],
        "metallicFactor": 0,
        "roughnessFactor": 0.59999999999999998
      }
    }
  ],
  "meshes": [
    {
      "primitives": [
        {
          "attributes": {
            "COLOR_0": 2,
            "NORMAL": 1,
            "POSITION": 0
          },
          "indices": 3,
          "material": 0,
          "mode": 4
        }
      ]
    },
    {
      "primitives": [
        {
          "attributes": {
            "COLOR_0": 6,
            "NORMAL": 5,
            "POSITION": 4
          },
          "indices": 7,
          "material": 0,
          "mode": 4
        }
      ]
    }
  ],
  "nodes": [
    {
      "children": [
        1
      ],
      "name": "RootNode (gltf orientation matrix)",
      "rotation": [
        -0.70710678118654746,
        -0,
        -0,
        0.70710678118654757
      ]
    },
    {
      "children": [
        2
      ],
      "matrix": [
        1,
        -1.1729942540660086e-16,
        -1.668114128493709e-16,
        0,
        -1.6739523030826593e-16,
        -0.0049948394298553467,
        -0.99998754262924194,
        0,
        1.1646476708131035e-16,
        0.99998754262924194,
        -0.0049948394298553467,
        0,
        3.5043582619076474e-15,
        -18.019716262817383,
        241.79658508300781,
        1
      ],
      "name": "RootNode (model correction matrix)"
    },
    {
      "children": [
        3,
        4
      ],
      "name": "sergical mask.obj.cleaner.materialmerger.gles"
    },
    {
      "mesh": 0,
      "name": ""
    },
    {
      "mesh": 1,
      "name": ""
    }
  ],
  "scene": 0,
  "scenes": [
    {
      "name": "OSG_Scene",
      "nodes": [
        0
      ]
    }
  ]
}

