<svg height="512pt" viewBox="-19 0 512 512.001" width="512pt" xmlns="http://www.w3.org/2000/svg"><path d="m466.054688 387.675781v-263.363281l-229.265626-116.804688v263.363282zm0 0" fill="#0ecfe2"/><path d="m304.34375 176.09375-33.9375 41.765625v70.140625l195.648438 99.675781v-78.753906l-121.683594-133.929687c-10.867188-11.960938-29.835938-11.4375-40.027344 1.101562zm0 0" fill="#5a9e3b"/><path d="m312.175781 169.5625 153.878907 167.960938v-28.601563l-121.683594-133.929687c-8.472656-9.328126-21.871094-11.0625-32.195313-5.429688zm0 0" fill="#538c35"/><path d="m236.792969 180.554688v90.316406l163.105469 83.097656zm0 0" fill="#68bd45"/><path d="m356.699219 331.960938 43.199219 22.007812-163.105469-173.414062v23.921874zm0 0" fill="#64af41"/><path d="m236.792969 270.871094 229.261719 116.804687-229.265626 116.804688.003907-.511719h-.007813l.003906.511719-229.269531-116.804688 229.265625-116.804687zm0 0" fill="#3e5359"/><path d="m7.519531 387.675781v-263.363281l229.269531-116.804688v263.363282zm0 0" fill="#80e7ff"/><path d="m236.792969 180.554688v90.316406l-76.074219 38.757812v-108.175781l26.105469-34.609375c8.738281-11.585938 25.792969-12.554688 35.785156-2.027344z" fill="#5a9e3b"/><path d="m7.519531 283.566406 88.554688-110.648437c8.042969-10.054688 22.96875-11.070313 32.300781-2.199219l60.324219 57.324219 48.09375 42.828125-229.273438 116.804687zm0 0" fill="#68bd45"/><path d="m193.105469 161.082031 43.6875 43.394531v-23.921874l-14.183594-15.738282c-7.949219-8.371094-20.359375-9.464844-29.503906-3.734375zm0 0" fill="#538c35"/><path d="m107.730469 181.414062 110.894531 98.714844 18.167969-9.257812-48.09375-42.828125-60.324219-57.324219c-9.332031-8.871094-24.257812-7.851562-32.300781 2.199219l-2.003907 2.503906c4.921876.328125 9.777344 2.300781 13.660157 5.992187zm0 0" fill="#64af41"/><path d="m329.523438 110.464844c0 11.433594-9.269532 20.703125-20.703126 20.703125-11.433593 0-20.703124-9.269531-20.703124-20.703125s9.269531-20.703125 20.703124-20.703125c11.433594 0 20.703126 9.269531 20.703126 20.703125zm0 0" fill="#ffdb56"/><path d="m308.820312 138.6875c15.5625 0 28.222657-12.660156 28.222657-28.222656s-12.660157-28.222656-28.222657-28.222656-28.222656 12.660156-28.222656 28.222656 12.660156 28.222656 28.222656 28.222656zm0-41.40625c7.269532 0 13.183594 5.914062 13.183594 13.183594 0 7.269531-5.914062 13.183594-13.183594 13.183594-7.269531 0-13.183593-5.914063-13.183593-13.183594 0-7.269532 5.914062-13.183594 13.183593-13.183594zm0 0"/><path d="m469.46875 117.613281-229.265625-116.804687c-.058594-.03125-.117187-.046875-.171875-.074219-.15625-.074219-.308594-.140625-.464844-.199219-.144531-.058594-.285156-.113281-.429687-.160156-.160157-.054688-.320313-.097656-.484375-.140625-.144532-.035156-.292969-.074219-.4375-.101563-.167969-.03125-.332032-.054687-.496094-.0742182-.148438-.0195313-.296875-.0390626-.445312-.046875-.167969-.0117188-.335938-.0117188-.5-.0117188-.152344 0-.300782 0-.453126.0117188-.164062.0078124-.324218.0273437-.488281.0507812-.152343.0195312-.304687.039062-.457031.066406-.15625.03125-.3125.070313-.472656.113282-.152344.039062-.304688.078124-.457032.128906-.148437.050781-.296874.105468-.445312.167968-.152344.058594-.304688.121094-.453125.195313-.054687.027344-.117187.042969-.171875.074219l-229.269531 116.804687c-2.519531 1.28125-4.105469 3.871094-4.105469 6.699219v263.363281c0 .339844.0273438.679688.0703125 1.011719.015625.113281.0468755.222656.0664065.332031.039062.21875.078125.433594.136719.644531.035156.128907.085937.253907.125.378907.0625.1875.125.375.199218.554687.054688.128906.121094.253906.183594.382813.085938.167969.167969.335937.261719.5.074219.125.15625.242187.234375.363281.105468.152344.207031.304688.320312.449219.089844.117187.1875.230469.285156.339843.121094.136719.246094.269532.375.398438.109376.105469.21875.207031.332032.304688.140625.121093.28125.234374.429687.347656.121094.089844.246094.175781.371094.261718.070313.042969.132813.097657.203125.140626.082031.050781.175781.089843.261719.140624.085937.046876.164062.105469.253906.148438l229.230469 116.785156c.507812.265625 1.039062.464844 1.585937.605469.003907.003906.007813 0 .011719.003906.007812 0 .011719.003907.015625.003907.492187.125.992187.195312 1.496094.21875h.015625.015625c.003906.003906.007812.003906.011719.003906.101562.003906.199218.003906.296874.003906.769532 0 1.535157-.117188 2.277344-.351562.007813-.003907.007813-.003907.015625-.003907.003907-.003906.007813-.003906.011719-.003906.390625-.125.769531-.285156 1.140625-.476563l71.890625-36.625c3.703125-1.886718 5.175781-6.414062 3.289062-10.113281-1.882812-3.703125-6.417968-5.171875-10.113281-3.289062l-12.570312 6.40625-39.511719-20.339844 42.085938-21.664063 39.648437 20.492188-2.8125 1.433594c-3.699219 1.882812-5.171875 6.410156-3.285156 10.113281 1.882812 3.699219 6.417969 5.171875 10.113281 3.285156l130.5-66.488281c.089844-.042969.167969-.101562.253906-.148438.085938-.050781.179688-.085937.265625-.140624.070313-.042969.128907-.09375.199219-.140626.128906-.082031.25-.171874.371094-.261718.148437-.109375.289062-.226563.429687-.347656.113281-.097657.222657-.199219.328125-.300782.132813-.128906.257813-.265625.375-.402344.097656-.109374.195313-.222656.285156-.335937.113282-.148437.21875-.296875.320313-.453125.082031-.117188.164063-.238281.238281-.363281.09375-.164063.175782-.328125.257813-.5.0625-.125.128906-.25.183593-.382813.078126-.179687.136719-.363281.199219-.550781.042969-.128906.089844-.253906.128907-.382813.054687-.210937.09375-.425781.132812-.640624.023438-.113282.050781-.222657.066406-.335938.046875-.332031.070313-.671875.070313-1.011719v-263.363281c0-2.828125-1.585938-5.417969-4.105469-6.699219zm-171.195312 228.976563-45.042969-23.167969 34.902343-17.953125 45.175782 23.015625zm51.53125-9.703125 42.640624 21.726562-35.386718 18.214844-42.367188-21.792969zm-206.769532-9.8125 42.40625-21.605469 34.90625 17.953125-45.042968 23.167969-35.035157-18.105469zm-19.261718 9.8125 35.113281 18.148437-42.371094 21.792969-35.382813-18.214844zm51.515624 26.625 45.121094 23.320312-42.148437 21.78125-45.3125-23.324219zm16.417969-8.441407 45.082031-23.191406 45.082032 23.191406-45.082032 23.296876zm45.082031-40.105468-34.828124-17.914063 21.03125-10.710937 13.796874-7.03125 13.304688 6.78125 21.519531 10.960937zm-7.519531-295.1875v141.195312l-1.074219-1.191406c-.042968-.046875-.085937-.097656-.132812-.144531-6.285156-6.621094-15.109375-10.128907-24.242188-9.609375-9.117187.519531-17.5 4.996094-23 12.289062l-21.03125 27.878906-26.234374-24.925781c-5.96875-5.675781-14.097657-8.609375-22.324219-8.050781-8.21875.5625-15.882813 4.570312-21.027344 11l-35.679687 44.585938c-2.597657 3.242187-2.070313 7.972656 1.171874 10.570312 3.242188 2.59375 7.972657 2.070312 10.570313-1.171875l35.679687-44.585937c2.558594-3.199219 6.21875-5.113282 10.308594-5.390626 4.09375-.28125 7.972656 1.121094 10.941406 3.945313l32.394532 30.78125c.003906.003906.011718.007813.015625.015625l27.914062 26.527344c1.457031 1.382812 3.320313 2.066406 5.179688 2.066406 1.988281 0 3.976562-.78125 5.453125-2.339844 2.859375-3.007812 2.738281-7.769531-.269532-10.628906l-23.121093-21.96875 22.066406-29.253906c2.832031-3.753906 7.148437-6.058594 11.84375-6.328125 4.671875-.25 9.1875 1.515625 12.421875 4.882812l12.175781 13.511719v82.824219l-163.796875 83.449219-50.429687 25.695312v-89.199219l32.433593-40.53125c2.597657-3.242187 2.070313-7.972656-1.171874-10.566406-3.238282-2.597656-7.972657-2.070313-10.570313 1.171875l-20.691406 25.855469v-133.214844zm-205.183593 367.898437 40.53125-20.648437 35.464843 18.253906-40.15625 20.652344zm52.359374 26.675781 40.070313-20.609374 45.347656 23.347656-39.738281 20.535156zm62.179688 31.675782 39.648438-20.488282 42.085937 21.664063-39.507813 20.339844zm137.585938 29.929687-39.421876 20.085938-39.425781-20.085938 39.425781-20.296875zm-39.421876-37.210937-42.117187-21.683594 42.117187-21.765625 42.117188 21.765625zm16.378907-51.914063 45.121093-23.320312 42.339844 21.777343-45.3125 23.324219zm98.28125 50.792969-39.738281-20.535156 45.351562-23.347656 40.066406 20.609374zm62.199219-31.691406-40.152344-20.652344 35.464844-18.253906 40.53125 20.648437zm44.886718-116.472656-25.636718-28.214844c-2.789063-3.074219-7.546876-3.300782-10.621094-.507813-3.074219 2.792969-3.300782 7.546875-.507813 10.621094l36.765625 40.46875v63.578125l-46.59375-23.738281-167.632812-85.40625v-66.132813l41.347656 45.886719c1.484375 1.648437 3.53125 2.484375 5.585938 2.484375 1.796874 0 3.597656-.640625 5.035156-1.933594 3.082031-2.78125 3.332031-7.535156.550781-10.621094l-16.527344-18.339843 29.878907-36.769531c3.472656-4.273438 8.625-6.8125 14.128906-6.964844 5.480468-.164063 10.789062 2.101562 14.496094 6.179687l62.734374 69.042969c1.480469 1.636719 3.523438 2.464844 5.566407 2.464844 1.804687 0 3.613281-.648438 5.054687-1.953125 3.074219-2.792969 3.300782-7.550781.507813-10.625l-62.734375-69.042969c-6.652344-7.328125-16.152344-11.382812-26.039063-11.097656-9.890625.269531-19.144531 4.832031-25.386719 12.511718l-28.394531 34.945313-25.804687-28.632813v-157.886718l214.226562 109.144531zm0 0"/></svg>