{
  "accessors": [
    {
      "bufferView": 2,
      "componentType": 5126,
      "count": 1412,
      "max": [
        0.53189998865127563,
        1.2101800441741943,
        1.7024999856948853
      ],
      "min": [
        -0.60210001468658447,
        -0.48258000612258911,
        -0.030060000717639923
      ],
      "type": "VEC3"
    },
    {
      "bufferView": 2,
      "byteOffset": 16944,
      "componentType": 5126,
      "count": 1412,
      "max": [
        0.99948418140411377,
        0.99944847822189331,
        0.99989134073257446
      ],
      "min": [
        -0.99999731779098511,
        -0.99815154075622559,
        -0.99998503923416138
      ],
      "type": "VEC3"
    },
    {
      "bufferView": 3,
      "componentType": 5126,
      "count": 1412,
      "max": [
        0.99999892711639404,
        0.99957430362701416,
        0.9926566481590271,
        1
      ],
      "min": [
        -0.99963164329528809,
        -0.9994996190071106,
        -0.99521338939666748,
        -1
      ],
      "type": "VEC4"
    },
    {
      "bufferView": 1,
      "componentType": 5126,
      "count": 1412,
      "max": [
        0.99931001663208008,
        0.99084997177124023
      ],
      "min": [
        0.0030000000260770321,
        0.00011000000085914508
      ],
      "type": "VEC2"
    },
    {
      "bufferView": 0,
      "componentType": 5125,
      "count": 7110,
      "max": [
        1411
      ],
      "min": [
        0
      ],
      "type": "SCALAR"
    },
    {
      "bufferView": 2,
      "byteOffset": 33888,
      "componentType": 5126,
      "count": 128,
      "max": [
        1,
        1,
        -0.0029299999587237835
      ],
      "min": [
        -1,
        -1,
        -0.44236001372337341
      ],
      "type": "VEC3"
    },
    {
      "bufferView": 2,
      "byteOffset": 35424,
      "componentType": 5126,
      "count": 128,
      "max": [
        0.72788256406784058,
        0.72788256406784058,
        0.68571722507476807
      ],
      "min": [
        -0.72788256406784058,
        -0.72788256406784058,
        -0.68571722507476807
      ],
      "type": "VEC3"
    },
    {
      "bufferView": 3,
      "byteOffset": 22592,
      "componentType": 5126,
      "count": 128,
      "max": [
        1,
        0.85536777973175049,
        0.72788244485855103,
        1
      ],
      "min": [
        -0.68397742509841919,
        -0.85769093036651611,
        -0.72788256406784058,
        1
      ],
      "type": "VEC4"
    },
    {
      "bufferView": 1,
      "byteOffset": 11296,
      "componentType": 5126,
      "count": 128,
      "max": [
        1,
        1
      ],
      "min": [
        0,
        0
      ],
      "type": "VEC2"
    },
    {
      "bufferView": 0,
      "byteOffset": 28440,
      "componentType": 5125,
      "count": 372,
      "max": [
        127
      ],
      "min": [
        0
      ],
      "type": "SCALAR"
    }
  ],
  "asset": {
    "extras": {
      "author": "trth (https://sketchfab.com/trethaller)",
      "license": "CC-BY-4.0 (http://creativecommons.org/licenses/by/4.0/)",
      "source": "https://sketchfab.com/models/a066533da18f4caca0afc879bee0fe24",
      "title": "Monkey"
    },
    "generator": "Sketchfab-3.18.6",
    "version": "2.0"
  },
  "bufferViews": [
    {
      "buffer": 0,
      "byteLength": 29928,
      "byteOffset": 0,
      "name": "floatBufferViews",
      "target": 34963
    },
    {
      "buffer": 0,
      "byteLength": 12320,
      "byteOffset": 29928,
      "byteStride": 8,
      "name": "floatBufferViews",
      "target": 34962
    },
    {
      "buffer": 0,
      "byteLength": 36960,
      "byteOffset": 42248,
      "byteStride": 12,
      "name": "floatBufferViews",
      "target": 34962
    },
    {
      "buffer": 0,
      "byteLength": 24640,
      "byteOffset": 79208,
      "byteStride": 16,
      "name": "floatBufferViews",
      "target": 34962
    }
  ],
  "buffers": [
    {
      "byteLength": 103848,
      "uri": "scene.bin"
    }
  ],
  "images": [
    {
      "uri": "textures/fur_3.001_baseColor.jpeg"
    },
    {
      "uri": "textures/stand_baseColor.png"
    }
  ],
  "materials": [
    {
      "doubleSided": true,
      "emissiveFactor": [
        0,
        0,
        0
      ],
      "name": "stand",
      "pbrMetallicRoughness": {
        "baseColorFactor": [
          1,
          1,
          1,
          1
        ],
        "baseColorTexture": {
          "index": 1,
          "texCoord": 0
        },
        "metallicFactor": 0,
        "roughnessFactor": 0.59999999999999998
      }
    },
    {
      "doubleSided": true,
      "emissiveFactor": [
        0,
        0,
        0
      ],
      "name": "fur_3.001",
      "pbrMetallicRoughness": {
        "baseColorFactor": [
          1,
          1,
          1,
          1
        ],
        "baseColorTexture": {
          "index": 0,
          "texCoord": 0
        },
        "metallicFactor": 0,
        "roughnessFactor": 0.59999999999999998
      }
    }
  ],
  "meshes": [
    {
      "name": "monkey2_0",
      "primitives": [
        {
          "attributes": {
            "NORMAL": 1,
            "POSITION": 0,
            "TANGENT": 2,
            "TEXCOORD_0": 3
          },
          "indices": 4,
          "material": 1,
          "mode": 4
        }
      ]
    },
    {
      "name": "Cylinder_0",
      "primitives": [
        {
          "attributes": {
            "NORMAL": 6,
            "POSITION": 5,
            "TANGENT": 7,
            "TEXCOORD_0": 8
          },
          "indices": 9,
          "material": 0,
          "mode": 4
        }
      ]
    }
  ],
  "nodes": [
    {
      "children": [
        1
      ],
      "name": "RootNode (gltf orientation matrix)",
      "rotation": [
        -0.70710678118654746,
        -0,
        -0,
        0.70710678118654757
      ]
    },
    {
      "children": [
        2
      ],
      "name": "RootNode (model correction matrix)"
    },
    {
      "children": [
        3,
        5,
        7
      ],
      "name": "Root"
    },
    {
      "children": [
        4
      ],
      "matrix": [
        1,
        0,
        0,
        0,
        0,
        0.97905999999999993,
        -0.20357,
        0,
        0,
        0.20357,
        0.97905999999999993,
        0,
        -0.061770000000000012,
        1.2417499999999999,
        4.0545599999999995,
        1
      ],
      "name": "Hemi"
    },
    {
      "name": "Hemi"
    },
    {
      "children": [
        6
      ],
      "name": "monkey2"
    },
    {
      "mesh": 0,
      "name": "monkey2_0"
    },
    {
      "children": [
        8
      ],
      "matrix": [
        1,
        0,
        0,
        0,
        0,
        1,
        0,
        0,
        0,
        0,
        1,
        0,
        -0.044410000000000012,
        0.39578000000000008,
        -0,
        1
      ],
      "name": "Cylinder"
    },
    {
      "mesh": 1,
      "name": "Cylinder_0"
    }
  ],
  "samplers": [
    {
      "magFilter": 9729,
      "minFilter": 9987,
      "wrapS": 10497,
      "wrapT": 10497
    }
  ],
  "scene": 0,
  "scenes": [
    {
      "name": "OSG_Scene",
      "nodes": [
        0
      ]
    }
  ],
  "textures": [
    {
      "sampler": 0,
      "source": 0
    },
    {
      "sampler": 0,
      "source": 1
    }
  ]
}

